<?xml version="1.0" encoding="UTF-8"?>
<svg xmlns="http://www.w3.org/2000/svg" xmlns:xlink="http://www.w3.org/1999/xlink" width="1012.5pt" height="487.499991pt" viewBox="0 0 1012.5 487.499991" version="1.2">
<defs>
<clipPath id="clip1">
  <path d="M 525 0 L 826.792969 0 L 826.792969 487 L 525 487 Z M 525 0 "/>
</clipPath>
<clipPath id="clip2">
  <path d="M 185.882812 0 L 496 0 L 496 487 L 185.882812 487 Z M 185.882812 0 "/>
</clipPath>
</defs>
<g id="surface1">
<g clip-path="url(#clip1)" clip-rule="nonzero">
<path style=" stroke:none;fill-rule:nonzero;fill:rgb(96.078491%,96.078491%,93.728638%);fill-opacity:1;" d="M 660.945312 278.542969 C 691.261719 278.542969 719.160156 268.441406 741.707031 251.613281 C 739.488281 321.855469 685.203125 392.128906 578.09375 462.410156 L 593.988281 487.082031 C 749.1875 390.628906 826.792969 284.769531 826.792969 169.527344 C 826.792969 116.601562 812.398438 75.128906 783.582031 45.171875 C 754.789062 15.15625 718.324219 0.1875 674.238281 0.1875 C 630.125 0.1875 594.578125 12.226562 567.527344 36.34375 C 540.492188 60.429688 526.957031 89.566406 526.957031 123.65625 C 526.957031 124.039062 527.027344 124.320312 527.027344 124.730469 C 526.199219 130.777344 525.617188 136.886719 525.617188 143.203125 C 525.617188 217.929688 586.226562 278.542969 660.945312 278.542969 Z M 660.945312 278.542969 "/>
</g>
<g clip-path="url(#clip2)" clip-rule="nonzero">
<path style=" stroke:none;fill-rule:nonzero;fill:rgb(96.078491%,96.078491%,93.728638%);fill-opacity:1;" d="M 223.402344 49.75 C 221.652344 51.777344 219.53125 53.707031 217.921875 55.820312 C 197.992188 79.40625 185.882812 109.851562 185.882812 143.195312 C 185.882812 217.921875 246.480469 278.558594 321.199219 278.558594 C 355.425781 278.558594 386.578125 265.746094 410.421875 244.769531 C 410.421875 245.605469 410.554688 246.308594 410.554688 247.167969 C 410.554688 318.902344 355.890625 390.671875 246.519531 462.421875 L 262.402344 487.082031 C 417.617188 390.628906 495.226562 284.769531 495.226562 169.5 C 495.226562 116.578125 480.832031 75.113281 452.003906 45.152344 C 423.210938 15.136719 386.757812 0.148438 342.667969 0.148438 C 298.582031 0.148438 262.992188 12.207031 235.957031 36.339844 C 232.132812 39.703125 229.164062 43.484375 225.890625 47.09375 C 225.023438 47.953125 224.25 48.851562 223.402344 49.75 Z M 223.402344 49.75 "/>
</g>
</g>
</svg>
